<?xml version="1.0" encoding="utf-8"?>
<!-- Generator: Adobe Illustrator 26.1.0, SVG Export Plug-In . SVG Version: 6.00 Build 0)  -->
<svg version="1.1" id="Capa_1" xmlns="http://www.w3.org/2000/svg" xmlns:xlink="http://www.w3.org/1999/xlink" x="0px" y="0px"
	 viewBox="0 0 1080 1080" style="enable-background:new 0 0 1080 1080;" xml:space="preserve">
<style type="text/css">
	.st0{fill:#B4B5B9;}
</style>
<g>
	<path class="st0" d="M857.48,164.68C827.09,112.14,745.71,24,542.21,24c-206.49,0-288.88,88.06-319.61,140.56
		c-5.29,9.04-5.32,19.89-0.09,29.02c5.3,9.25,14.82,14.77,25.45,14.77h26.95c10.44,0,20.48-5.09,26.85-13.61
		c25.32-33.87,90.9-90.7,245.68-90.7c152.08,0,207.13,55.16,226.41,88.03c5.89,10.04,16.85,16.28,28.61,16.28h29.57
		c10.6,0,20.1-5.49,25.41-14.7C862.69,184.55,862.7,173.72,857.48,164.68z"/>
	<path class="st0" d="M459.53,519c-57.33,0-114.66,0.13-171.98-0.05c-32.91-0.1-53.56-17.67-53.72-45.06
		c-0.15-27.42,20.58-45.49,53.24-45.53c115.41-0.15,230.82-0.14,346.23-0.01c32.91,0.04,53.56,17.66,53.72,45.06
		c0.15,27.42-20.58,45.42-53.24,45.53C575.7,519.14,517.61,519,459.53,519z"/>
	<path class="st0" d="M988.94,451.17l-42.74-150.43c-9.01-31.7-39.97-53.85-75.29-53.85H209.1c-35.32,0-66.28,22.14-75.29,53.85
		L91.07,451.15c-2.66,9.37-3.56,19.02-2.66,28.71L109.8,708c2.2,23.42,22.94,40.64,46.36,38.49c0.29-0.03,0.57-0.05,0.86-0.08
		c23.49-2.15,40.78-22.96,38.57-46.45l-21.25-226.63l39.86-140.27h651.59l39.86,140.27l-43.7,466.17
		c-1.56,16.72-22.21,30.33-46.02,30.33H264.07c-23.81,0-44.46-13.61-46.02-30.33l-6.37-67.95c-2.01-21.42-20.97-37.19-42.4-35.22
		c-0.13,0.01-0.26,0.02-0.39,0.04c-2.58,0.24-5.15,0.47-7.73,0.71c-21.49,1.98-37.29,21.02-35.27,42.51l6.37,67.96
		c5.8,61.83,62.47,108.46,131.82,108.46h551.86c69.35,0,126.02-46.63,131.82-108.46l43.84-467.71
		C992.49,470.17,991.59,460.52,988.94,451.17z"/>
</g>
</svg>
