<?xml version="1.0" encoding="utf-8"?>
<!-- Generator: Adobe Illustrator 26.1.0, SVG Export Plug-In . SVG Version: 6.00 Build 0)  -->
<svg version="1.1" id="Capa_1" xmlns="http://www.w3.org/2000/svg" xmlns:xlink="http://www.w3.org/1999/xlink" x="0px" y="0px"
	 viewBox="0 0 1080 1080" style="enable-background:new 0 0 1080 1080;" xml:space="preserve">
<style type="text/css">
	.st0{fill:#B4B5B9;}
</style>
<g>
	<g>
		<g>
			<path class="st0" d="M406.65,281.66c-34.81,0-69.63,0.23-104.44-0.07c-30.37-0.26-50.34-18.1-50.46-44.3
				c-0.12-26.21,19.9-44.54,50.08-44.66c70.37-0.28,140.74-0.27,211.1-0.01c30.37,0.11,50.34,18.09,50.46,44.29
				c0.12,26.21-19.9,44.39-50.08,44.67C477.76,281.91,442.2,281.66,406.65,281.66z"/>
		</g>
		<g>
			<path class="st0" d="M843.37,187.73c-24.62-24.62-49.4-49.07-73.8-73.9c-21.29-21.66-22.8-48.4-4.35-67.01
				c18.45-18.62,45.56-17.42,66.99,3.84c49.95,49.56,99.7,99.33,149.28,149.27c21.39,21.55,22.81,48.39,4.36,67
				c-18.45,18.62-45.46,17.32-67-3.83C893.47,238.19,868.51,212.87,843.37,187.73z"/>
		</g>
		<path class="st0" d="M729.56,489.66H332.71c-41.84,0-75.89,34.04-75.89,75.89v274.93c0,41.85,34.04,75.89,75.89,75.89h396.85
			c41.84,0,75.89-34.04,75.89-75.89V565.55C805.45,523.71,771.4,489.66,729.56,489.66z M468.86,704.13l-139.65,98.98V605.15
			L468.86,704.13z M393.59,562.05h275.75l-137.87,97.72L393.59,562.05z M531.46,748.49l134.73,95.49H396.73L531.46,748.49z
			 M594.05,704.13l139-98.52v197.03L594.05,704.13z"/>
		<g>
			<path class="st0" d="M951.96,378.1L638.04,58.73c-23.88-24.3-57.12-38.23-91.19-38.23H227.5c-80.73,0-146.18,65.45-146.18,146.18
				v114.05c0,23.38,18.96,42.34,42.34,42.34h0c23.38,0,42.34-18.96,42.34-42.34V166.68c0-33.97,27.54-61.5,61.5-61.5h319.36
				c11.5,0,22.73,4.7,30.79,12.91l313.92,319.37c3.45,3.51,5.34,8.15,5.34,13.07v492.23c0,17.7-14.35,32.06-32.06,32.06h-666.8
				c-17.71,0-32.06-14.35-32.06-32.06V454.55c0-23.38-18.96-42.34-42.34-42.34h0c-23.38,0-42.34,18.96-42.34,42.34v488.22
				c0,64.47,52.27,116.74,116.74,116.74h666.8c64.47,0,116.74-52.27,116.74-116.74V450.53C981.6,423.27,971.08,397.54,951.96,378.1z
				"/>
		</g>
	</g>
</g>
</svg>
