<?xml version="1.0" encoding="utf-8"?>
<!-- Generator: Adobe Illustrator 26.1.0, SVG Export Plug-In . SVG Version: 6.00 Build 0)  -->
<svg version="1.1" id="Capa_1" xmlns="http://www.w3.org/2000/svg" xmlns:xlink="http://www.w3.org/1999/xlink" x="0px" y="0px"
	 viewBox="0 0 1080 1080" style="enable-background:new 0 0 1080 1080;" xml:space="preserve">
<style type="text/css">
	.st0{fill:#B4B5B9;}
</style>
<g>
	<g>
		<path class="st0" d="M541.21,649.33c-34.77,4.75-125.94,29.91-217.11,35.98c-91.17,8.42-182.34-2.25-217.12-14.89
			C67.05,659.69,42,626.91,41.81,593.81c-0.19-33.55,24.97-43.96,64.58-33.44c35,9.02,98.55,21.46,176.36,17.63
			c77.81-2.34,169.9-20.95,261.99-39.53c92.09-18.58,184.17-37.16,261.99-39.5c77.82-3.83,141.36,8.58,176.36,17.65
			c39.93,10.66,64.98,43.51,65.17,76.61c0.18,33.55-24.97,43.88-64.59,33.44c-35.23-12.77-128.23-23.38-221.23-14.49
			C669.44,618.66,576.44,644.65,541.21,649.33z"/>
	</g>
	<g>
		<path class="st0" d="M966.64,429.79H113.36c-51.43,0-93.27-38.49-93.27-85.79v-74.28c0-129.47,120.45-234.8,268.51-234.8H791.4
			c148.05,0,268.51,105.33,268.51,234.8v74.28C1059.91,391.3,1018.07,429.79,966.64,429.79z M106.77,341.46
			c1.15,0.72,3.33,1.65,6.59,1.65h853.29c3.25,0,5.44-0.93,6.59-1.65v-71.75c0-81.67-81.57-148.12-181.83-148.12H288.6
			c-100.26,0-181.83,66.45-181.83,148.12V341.46z"/>
	</g>
	<g>
		<path class="st0" d="M918.03,1045.09H161.97c-81.21,0-147.27-66.07-147.27-147.28v-80.55c0-32.14,26.15-58.29,58.29-58.29h934.03
			c32.14,0,58.29,26.15,58.29,58.29v80.55C1065.3,979.02,999.23,1045.09,918.03,1045.09z M101.38,845.66v52.16
			c0,33.41,27.18,60.6,60.59,60.6h756.06c33.41,0,60.59-27.18,60.59-60.6v-52.16H101.38z"/>
	</g>
</g>
</svg>
