<?xml version="1.0" encoding="utf-8"?>
<!-- Generator: Adobe Illustrator 26.1.0, SVG Export Plug-In . SVG Version: 6.00 Build 0)  -->
<svg version="1.1" id="Capa_1" xmlns="http://www.w3.org/2000/svg" xmlns:xlink="http://www.w3.org/1999/xlink" x="0px" y="0px"
	 viewBox="0 0 1080 1080" style="enable-background:new 0 0 1080 1080;" xml:space="preserve">
<style type="text/css">
	.st0{fill:#B4B5B9;}
</style>
<path class="st0" d="M192.41,490.33c52.86,7.22,63.34,19.37,63.34,69.46c0.01,110.51,0,221.02,0,331.53c0,8.48,0,16.95,0,27.82
	c30.34,0,58.53-0.18,86.72,0.05c33.99,0.28,55.72,19.38,55.22,48.11c-0.48,27.89-21.68,46.29-54.44,46.51
	c-41.83,0.27-83.67,0.22-125.51,0.03c-39.09-0.19-56.62-17.43-56.68-56.25c-0.17-113.67-0.06-227.34-0.06-341
	c0-8.59,0-17.18,0-29.05c-29.31,0-57.41-0.51-85.48,0.15c-24.48,0.58-43.54-7.25-52.96-31.12c-9.65-24.43,1.29-42.15,19.18-58.23
	C194.43,361.2,346.86,223.79,499.45,86.55c30.31-27.26,50.6-27.4,80.61-0.42C733.24,223.88,886.27,361.8,1039.5,499.5
	c17.3,15.55,27.1,33.09,18.14,56.46c-9.17,23.92-27.95,32.26-52.55,31.71c-27.54-0.62-55.11-0.14-86.12-0.14c0,9.43,0,17.74,0,26.05
	c0,113.67,0.06,227.34-0.03,341c-0.03,42.38-16.6,59.22-58.43,59.26c-103.41,0.12-206.81,0.13-310.22-0.01
	c-40.36-0.05-57.46-17.29-57.63-57.69c-0.16-38.68-0.9-77.39,0.38-116.02c0.53-16.07-4.59-22.81-19.77-28.59
	c-86.74-33.05-136.1-121.07-119.35-210.05c17.1-90.86,93.8-155.56,184.9-155.99c90.39-0.42,169.13,63.49,186.44,151.35
	c18.03,91.53-29.38,179.88-116.42,213.71c-16.7,6.49-23.27,13.88-21.92,31.99c1.81,24.26,0.45,48.76,0.45,74.88
	c78.76,0,156.37,0,236.86,0c0-8.38,0-16.77,0-25.16c0-112.09-0.02-224.18,0.01-336.27c0.01-46.26,13.13-60.43,64.33-64.61
	C771.4,385.89,656.87,282.76,540.08,177.61C424.82,281.28,310.07,384.5,192.41,490.33z M634.56,635.75
	c0.47-51.96-42.34-95.27-94.31-95.42c-51.02-0.14-93.74,41.54-94.83,92.53c-1.11,51.93,41.2,95.82,93.13,96.61
	C590.49,730.26,634.09,687.7,634.56,635.75z"/>
</svg>
