<?xml version="1.0" encoding="utf-8"?>
<!-- Generator: Adobe Illustrator 26.1.0, SVG Export Plug-In . SVG Version: 6.00 Build 0)  -->
<svg version="1.1" id="Capa_1" xmlns="http://www.w3.org/2000/svg" xmlns:xlink="http://www.w3.org/1999/xlink" x="0px" y="0px"
	 viewBox="0 0 500 500" style="enable-background:new 0 0 500 500;" xml:space="preserve">
<style type="text/css">
	.st0{fill:#FF9F06;}
</style>
<g>
	<path class="st0" d="M250,18.07C122.11,18.07,18.07,122.11,18.07,250S122.11,481.93,250,481.93S481.93,377.89,481.93,250
		S377.89,18.07,250,18.07z M250,431.68c-100.18,0-181.68-81.5-181.68-181.68S149.82,68.32,250,68.32S431.68,149.82,431.68,250
		S350.18,431.68,250,431.68z"/>
	<g>
		<path class="st0" d="M271.74,388.52h-43.48c-2.06,0-3.73-1.67-3.73-3.73V201.19c0-2.06,1.67-3.73,3.73-3.73h43.48
			c2.06,0,3.73,1.67,3.73,3.73v183.59C275.47,386.84,273.8,388.52,271.74,388.52z"/>
		<path class="st0" d="M271.74,157.66h-43.48c-2.06,0-3.73-1.67-3.73-3.73v-38.71c0-2.06,1.67-3.73,3.73-3.73h43.48
			c2.06,0,3.73,1.67,3.73,3.73v38.71C275.47,155.99,273.8,157.66,271.74,157.66z"/>
	</g>
</g>
</svg>
