<?xml version="1.0" encoding="utf-8"?>
<!-- Generator: Adobe Illustrator 26.1.0, SVG Export Plug-In . SVG Version: 6.00 Build 0)  -->
<svg version="1.1" id="Capa_1" xmlns="http://www.w3.org/2000/svg" xmlns:xlink="http://www.w3.org/1999/xlink" x="0px" y="0px"
	 viewBox="0 0 500 500" style="enable-background:new 0 0 500 500;" xml:space="preserve">
<style type="text/css">
	.st0{fill:#131524;}
</style>
<g>
	<g>
		<path class="st0" d="M469.89,185.46l-17.97-0.16c-4.81-0.04-8.67-3.97-8.63-8.78l0.54-89.83H54.96v89.16c0,4.81-3.9,8.7-8.7,8.7
			H28.29c-4.81,0-8.7-3.9-8.7-8.7V60.02c0-4.81,3.9-8.7,8.7-8.7h442.46c4.84,0,8.75,3.94,8.7,8.78l-0.78,116.74
			C478.63,181.64,474.7,185.51,469.89,185.46z"/>
	</g>
</g>
<g>
	<g>
		<path class="st0" d="M409.94,449.25H89.01c-9.65,0-17.21-8.32-16.27-17.93L99.2,159.48c0.87-8.99,8.87-15.56,17.85-14.69
			l2.63,0.26c9,0.88,15.58,8.9,14.68,17.9l-19.58,195.56c-2.57,25.65,17.58,47.92,43.36,47.92h182.84
			c25.74,0,45.87-22.19,43.37-47.81l-19.11-195.83c-0.88-9,5.72-17.01,14.73-17.86l2.63-0.25c8.99-0.85,16.96,5.74,17.82,14.73
			l25.8,271.96C427.12,440.96,419.58,449.25,409.94,449.25z"/>
	</g>
</g>
<circle class="st0" cx="249.48" cy="239.39" r="58.29"/>
</svg>
