<?xml version="1.0" encoding="utf-8"?>
<!-- Generator: Adobe Illustrator 26.1.0, SVG Export Plug-In . SVG Version: 6.00 Build 0)  -->
<svg version="1.1" id="Capa_1" xmlns="http://www.w3.org/2000/svg" xmlns:xlink="http://www.w3.org/1999/xlink" x="0px" y="0px"
	 viewBox="0 0 1080 1080" style="enable-background:new 0 0 1080 1080;" xml:space="preserve">
<style type="text/css">
	.st0{fill:#B4B5B9;}
</style>
<g>
	<path class="st0" d="M947.43,384.14c-214.57,0-426.58,0-641.07,0c17.51,70.89,29.54,141.96,53.07,208.99
		c26.98,76.84,23.58,145.72-24.16,211.85c-15.57,21.56-17.17,42.87-9.93,69.8c18,66.99-15.81,136.78-77.29,170.52
		c-60.99,33.47-136.46,22.57-185.99-26.87c-49.47-49.38-60.5-124.97-27.13-185.96c33.65-61.5,102.96-93.45,170.69-78.52
		c10.17,2.24,20.19,5.17,31.69,8.15c22.05-36.49,40.26-69.25,26.92-117.89c-45.41-165.63-85.22-332.82-125.86-499.73
		c-4.8-19.74-12.84-25.66-31.57-23.86c-13.84,1.33-28,0.98-41.88-0.16c-28.3-2.33-48.94-24.74-49-51.89
		c-0.06-27.14,20.51-50.75,48.8-51.89c37.5-1.51,75.18-1.81,112.64,0.13c26.67,1.38,41.65,19.43,47.99,44.77
		c15.66,62.6,31.33,125.2,47.05,187.79c2.3,9.15,4.9,18.21,7.77,28.81c11.19,0,21.57,0,31.96,0c227.12,0,454.24-0.02,681.35,0.01
		c58.08,0.01,77.21,22.93,66.01,80c-15.44,78.75-31.79,157.32-46.94,236.12c-5.41,28.15-20.74,44.46-48.54,51.34
		c-135.44,33.51-270.72,67.68-406.14,101.3c-33.65,8.35-62.06-7.91-69.06-38.32c-6.58-28.57,11.26-54.87,44.49-63.27
		c118.36-29.93,236.71-59.91,355.39-88.5c20.03-4.83,28.33-13.36,31.59-33.61C927.74,477.04,938.05,431.29,947.43,384.14z
		 M172.93,959.55c27.9,0.05,51.55-22.93,52.31-50.84c0.79-28.89-23.2-53.57-52.14-53.62c-27.9-0.05-51.55,22.94-52.32,50.84
		C119.99,934.81,144,959.5,172.93,959.55z"/>
	<path class="st0" d="M1064.21,907.62c-0.13,86.01-70.85,156.75-156.85,156.9c-87.14,0.15-158.26-71.53-157.55-158.82
		c0.69-85.86,71.99-156,158.16-155.59C993.95,750.52,1064.34,821.49,1064.21,907.62z M959.23,909.38
		c1.14-27.78-21-52.35-48.86-54.23c-28.75-1.93-54.41,21.18-55.6,50.08c-1.14,27.77,21,52.35,48.86,54.23
		C932.4,961.4,958.05,938.3,959.23,909.38z"/>
</g>
</svg>
