<?xml version="1.0" encoding="utf-8"?>
<!-- Generator: Adobe Illustrator 26.1.0, SVG Export Plug-In . SVG Version: 6.00 Build 0)  -->
<svg version="1.1" id="Capa_1" xmlns="http://www.w3.org/2000/svg" xmlns:xlink="http://www.w3.org/1999/xlink" x="0px" y="0px"
	 viewBox="0 0 1080 1080" style="enable-background:new 0 0 1080 1080;" xml:space="preserve">
<style type="text/css">
	.st0{fill:#B4B5B9;}
</style>
<g>
	<path class="st0" d="M226.44,120.52c0,13.54,0,23.88,0,34.21c0,277.99,0,555.98,0,833.97c0,7.87,0.32,15.76-0.17,23.6
		c-1.86,30.11-23.39,51.84-51.41,52.21c-29.02,0.38-51.11-21.95-52.78-53.51c-0.28-5.23-0.11-10.49-0.11-15.73
		c0-303.34-0.02-606.69,0.01-910.03c0-52.37,16.92-69.62,68.33-69.64c163.67-0.05,327.33,0.33,490.99-0.38
		c25.37-0.11,44.9,7.53,62.66,25.67c62.85,64.21,126.37,127.78,190.15,191.06c16.56,16.43,24.01,34.67,23.96,58.27
		c-0.49,236.9-0.25,473.81-0.35,710.71c-0.02,43.75-18.95,63.64-61.1,63.68c-168.89,0.19-337.78,0.2-506.67-0.03
		c-35.54-0.05-59.04-21.72-58.85-52.66c0.2-30.92,23.63-51.47,59.48-52.11c6.09-0.11,12.19-0.02,18.28-0.02
		c137.55,0,275.1,0,412.65,0c9.45,0,18.9,0,31.78,0c0-10.86,0-20.11,0-29.37c0-201.94-0.24-403.88,0.41-605.81
		c0.06-18.21-5.35-30.77-18.17-43.29c-49.28-48.15-97.32-97.59-146.43-145.93c-6.84-6.73-17.03-14.21-25.71-14.27
		C518.99,120.27,374.57,120.52,226.44,120.52z"/>
	<path class="st0" d="M538.81,592.6c-49.5,0-99.01,0.26-148.51-0.09c-35.63-0.25-59.04-21.27-59.19-52.12
		c-0.15-30.86,23.32-52.48,58.71-52.58c99.87-0.3,199.74-0.29,299.62-0.01c35.63,0.1,59.04,21.26,59.19,52.11
		c0.15,30.86-23.31,52.33-58.71,52.59C639.56,592.88,589.18,592.6,538.81,592.6z"/>
	<path class="st0" d="M487.23,802.42c-32.98,0-65.96,0.38-98.93-0.11c-33.75-0.5-56.65-21.52-57.18-51.44
		c-0.55-30.86,22.95-53.01,57.99-53.23c65.95-0.4,131.91-0.43,197.87,0.02c33.75,0.23,56.65,21.49,57.18,51.41
		c0.55,30.86-22.95,52.79-57.99,53.25C553.19,802.76,520.21,802.42,487.23,802.42z"/>
	<path class="st0" d="M434.72,382.73c-16.47-0.01-32.95,0.48-49.4-0.12c-31.58-1.16-53.84-22.68-54.2-51.66
		c-0.36-29,21.77-51.94,52.96-52.79c33.78-0.92,67.61-0.81,101.4-0.06c31.58,0.71,53.84,22.62,54.2,51.59
		c0.37,29.92-22.52,51.98-55.55,52.96C467.67,383.15,451.19,382.75,434.72,382.73z"/>
</g>
</svg>
